<svg width="36" height="36" viewBox="0 0 36 36" fill="none" xmlns="http://www.w3.org/2000/svg">
<path d="M26.8767 22.2968L26.8763 22.2965C25.9788 21.7028 24.7757 21.8982 24.1122 22.7455L24.1119 22.7458L22.2015 25.2021L22.2004 25.2036C22 25.4678 21.6357 25.5445 21.3458 25.3834L21.3454 25.3832L20.982 25.1828L20.9814 25.1825L20.9778 25.1805C19.7849 24.5303 18.2978 23.7198 15.2921 20.713C12.2874 17.7072 11.4747 16.219 10.8246 15.0284L10.822 15.0236L10.8218 15.0234L10.6226 14.66L10.6226 14.66L10.6217 14.6585C10.4584 14.3686 10.5336 14.0026 10.7981 13.8005L10.7991 13.7997L13.2537 11.8899L13.2541 11.8896C14.101 11.2261 14.2967 10.0234 13.7037 9.12566L13.7033 9.12511L9.32975 2.56695C8.72174 1.65238 7.50192 1.37784 6.56068 1.94365L3.81948 3.5903C3.81927 3.59043 3.81907 3.59055 3.81886 3.59067C2.92407 4.11693 2.2676 4.96902 1.98706 5.96848L1.98683 5.96932C0.979055 9.64126 1.76179 15.9044 10.9288 25.0725L11.0348 24.9664C18.3119 32.2429 23.7293 34.1997 27.4529 34.1997L27.4522 34.3497C27.4524 34.3497 27.4526 34.3497 27.4529 34.3497C28.323 34.3534 29.1898 34.2401 30.0298 34.013L30.0312 34.0126C31.0308 33.7324 31.883 33.0759 32.409 32.1809C32.4091 32.1807 32.4093 32.1804 32.4094 32.1802L34.0577 29.4407C34.6243 28.4993 34.3499 27.2787 33.4349 26.6704L26.8767 22.2968ZM32.8702 28.7319L32.8701 28.7322L31.2248 31.4746L31.224 31.4761C30.8801 32.0646 30.3219 32.4973 29.6662 32.6838C26.4199 33.5748 20.6699 32.8614 11.9049 24.0964C3.13996 15.3314 2.42656 9.58192 3.31754 6.33506C3.50423 5.67858 3.93755 5.1196 4.52682 4.77516L4.52683 4.77517L4.5283 4.77429L7.27076 3.12904L7.27093 3.12894C7.58077 2.94251 7.98243 3.03288 8.18259 3.33397L8.18268 3.33411L12.5523 9.89144C12.5524 9.89149 12.5524 9.89154 12.5524 9.89159C12.748 10.1875 12.6837 10.5839 12.4047 10.8029C12.4046 10.8029 12.4046 10.803 12.4045 10.803L9.9508 12.7117C9.95063 12.7118 9.95047 12.7119 9.9503 12.7121C9.14441 13.3287 8.91423 14.4439 9.41025 15.3292C9.41035 15.3293 9.41046 15.3295 9.41056 15.3297L9.60466 15.6824C9.6047 15.6825 9.60475 15.6826 9.6048 15.6826C10.3008 16.9592 11.1672 18.5456 14.3107 21.6886C17.4541 24.8314 19.04 25.6979 20.3159 26.3938C20.316 26.3939 20.3162 26.3939 20.3163 26.394L20.6695 26.5886C20.6697 26.5887 20.6699 26.5889 20.6701 26.589C21.5553 27.0848 22.6704 26.8548 23.287 26.049C23.2872 26.0488 23.2873 26.0486 23.2875 26.0484L25.1961 23.5947C25.1963 23.5946 25.1964 23.5944 25.1965 23.5943C25.4155 23.3157 25.8116 23.2515 26.1075 23.4467C26.1076 23.4468 26.1077 23.4469 26.1078 23.4469L32.665 27.8202L32.6653 27.8204C32.9665 28.0203 33.0569 28.4221 32.8702 28.7319ZM30.5695 16.3811V16.3809C30.5631 10.6348 25.9066 5.97818 20.1605 5.97189H20.1603C19.7792 5.97189 19.4704 6.28076 19.4704 6.66183C19.4704 7.04284 19.7792 7.35168 20.1601 7.35177C25.1447 7.35731 29.184 11.3967 29.1896 16.3812C29.1897 16.7622 29.4986 17.071 29.8796 17.071C30.2606 17.071 30.5695 16.7621 30.5695 16.3811ZM27.3297 16.3813V16.3811C27.3252 12.4235 24.118 9.21639 20.1605 9.21186H20.1603C19.7792 9.21186 19.4704 9.52074 19.4704 9.9018C19.4704 10.2828 19.7792 10.5916 20.1601 10.5917C23.3562 10.5955 25.9461 13.1855 25.9499 16.3815C25.95 16.7625 26.2589 17.0712 26.6398 17.0712C27.0209 17.0712 27.3297 16.7624 27.3297 16.3813ZM24.09 16.3812V16.381C24.0875 14.2118 22.3297 12.4539 20.1605 12.4515H20.1603C19.7792 12.4515 19.4704 12.7603 19.4704 13.1414C19.4704 13.5224 19.7791 13.8312 20.1601 13.8313C21.5677 13.833 22.7084 14.9737 22.7101 16.3813C22.7102 16.7623 23.0191 17.0711 23.4001 17.0711C23.781 17.0711 24.09 16.7622 24.09 16.3812Z" fill="white" stroke="white" stroke-width="0.3"/>
</svg>
