<svg width="17" height="20" viewBox="0 0 17 20" fill="none" xmlns="http://www.w3.org/2000/svg">
<path d="M14.1506 5.26197H12.0919V4.44324C12.0919 2.43419 10.4578 0.8 8.44882 0.8C6.43991 0.8 4.80601 2.43421 4.80601 4.44324V5.26197H2.74569C2.30779 5.26197 1.94216 5.59609 1.903 6.03235C1.903 6.03236 1.903 6.03236 1.903 6.03237L0.803385 18.2783L0.803382 18.2784C0.782177 18.515 0.861365 18.7495 1.02167 18.9249C1.18198 19.1002 1.4086 19.2 1.64607 19.2H15.2504H15.2504H15.2504H15.2504H15.2504H15.2504H15.2504H15.2505H15.2505H15.2505H15.2505H15.2505H15.2505H15.2506H15.2506H15.2506H15.2506H15.2506H15.2506H15.2507H15.2507H15.2507H15.2507H15.2507H15.2507H15.2508H15.2508H15.2508H15.2508H15.2508H15.2508H15.2509H15.2509H15.2509H15.2509H15.2509H15.2509H15.251H15.251H15.251H15.251H15.251H15.251H15.251H15.2511H15.2511H15.2511H15.2511H15.2511H15.2511H15.2512H15.2512H15.2512H15.2512H15.2512H15.2512H15.2512H15.2513H15.2513H15.2513H15.2513H15.2513H15.2513H15.2513H15.2514H15.2514H15.2514H15.2514H15.2514H15.2514H15.2515H15.2515H15.2515H15.2515H15.2515H15.2515H15.2516H15.2516H15.2516H15.2516H15.2516H15.2516H15.2517H15.2517H15.2517H15.2517H15.2517H15.2517H15.2517H15.2518H15.2518H15.2518H15.2518H15.2518H15.2518H15.2519H15.2519H15.2519H15.2519H15.2519H15.2519H15.252H15.252H15.252H15.252H15.252H15.252H15.2521H15.2521C15.7194 19.2 16.0982 18.8212 16.0982 18.3539L16.0982 18.3534C16.098 18.3097 16.0947 18.2662 16.088 18.2234L14.9933 6.03235C14.9542 5.5961 14.5886 5.26197 14.1506 5.26197ZM6.49816 4.44324C6.49816 3.36755 7.37346 2.49215 8.4489 2.49215C9.52445 2.49215 10.3998 3.36757 10.3998 4.44324V5.26197H6.49816V4.44324ZM13.3772 6.95412L14.3249 17.5079H2.57156L3.51923 6.95412H4.80601V7.90947C4.80601 8.37672 5.18472 8.75555 5.65209 8.75555C6.11945 8.75555 6.49816 8.37672 6.49816 7.90947V6.95412H10.3998V7.90947C10.3998 8.37672 10.7785 8.75555 11.2459 8.75555C11.7133 8.75555 12.092 8.37672 12.092 7.90947V6.95412H13.3772Z" fill="#FFB000" stroke="#FFB000" stroke-width="0.4"/>
</svg>
