<svg width="66" height="50" viewBox="0 0 66 50" fill="none" xmlns="http://www.w3.org/2000/svg">
<path d="M62.1463 31.2672H22.6816C20.8861 31.2672 19.4319 29.813 19.4319 28.0175V3.24973C19.4319 1.45588 20.8861 0 22.6816 0H62.1463C63.9417 0 65.396 1.45588 65.396 3.24973V28.0159C65.396 29.8114 63.9417 31.2672 62.1463 31.2672Z" fill="#7147D7"/>
<path d="M40.4251 0C30.286 7.6856 23.1528 17.5323 19.4644 28.3376C19.4481 28.2076 19.4319 28.0776 19.4319 27.9314V3.16848C19.4319 1.62486 20.5043 0.324973 21.9504 0H40.4251Z" fill="#7147D7"/>
<path d="M44.4043 31.2673C54.5434 23.5817 61.6766 13.735 65.365 2.92969C65.3813 3.05968 65.3975 3.18967 65.3975 3.3359V28.0988C65.3975 29.6424 64.3251 30.9423 62.879 31.2673H44.4043Z" fill="#7147D7"/>
<path d="M50.881 12.7908C53.067 12.7908 54.8392 11.0187 54.8392 8.83268C54.8392 6.64664 53.067 4.87451 50.881 4.87451C48.695 4.87451 46.9229 6.64664 46.9229 8.83268C46.9229 11.0187 48.695 12.7908 50.881 12.7908Z" fill="#FEE218"/>
<path d="M56.5649 12.7908C58.7509 12.7908 60.523 11.0187 60.523 8.83268C60.523 6.64664 58.7509 4.87451 56.5649 4.87451C54.3788 4.87451 52.6067 6.64664 52.6067 8.83268C52.6067 11.0187 54.3788 12.7908 56.5649 12.7908Z" fill="#D3356C"/>
<path d="M33.0321 18.7966H25.3448C24.4479 18.7966 23.72 18.0703 23.72 17.1717C23.72 16.2732 24.4479 15.5469 25.3448 15.5469H33.0321C33.929 15.5469 34.6569 16.2732 34.6569 17.1717C34.6569 18.0687 33.929 18.7966 33.0321 18.7966Z" fill="white"/>
<path d="M39.8987 10.4577H25.3448C24.4479 10.4577 23.72 9.73142 23.72 8.83287C23.72 7.93432 24.4479 7.20801 25.3448 7.20801H39.8987C40.7957 7.20801 41.5236 7.93432 41.5236 8.83287C41.5236 9.73142 40.7957 10.4577 39.8987 10.4577Z" fill="white"/>
<path d="M30.104 27.1352H25.3431C24.4462 27.1352 23.7183 26.4089 23.7183 25.5104C23.7183 24.6118 24.4462 23.8855 25.3431 23.8855H30.104C31.0009 23.8855 31.7288 24.6118 31.7288 25.5104C31.7288 26.4073 31.0025 27.1352 30.104 27.1352Z" fill="#9271EE"/>
<path d="M39.8986 27.1352H35.1378C34.2409 27.1352 33.5129 26.4089 33.5129 25.5104C33.5129 24.6118 34.2409 23.8855 35.1378 23.8855H39.8986C40.7956 23.8855 41.5235 24.6118 41.5235 25.5104C41.5235 26.4073 40.7956 27.1352 39.8986 27.1352Z" fill="#FBFBFB"/>
<path d="M49.6916 27.1352H44.9308C44.0338 27.1352 43.3059 26.4089 43.3059 25.5104C43.3059 24.6118 44.0338 23.8855 44.9308 23.8855H49.6916C50.5886 23.8855 51.3165 24.6118 51.3165 25.5104C51.3165 26.4073 50.5886 27.1352 49.6916 27.1352Z" fill="#9271EE"/>
<path d="M59.4848 27.1352H54.724C53.8271 27.1352 53.0991 26.4089 53.0991 25.5104C53.0991 24.6118 53.8271 23.8855 54.724 23.8855H59.4848C60.3818 23.8855 61.1097 24.6118 61.1097 25.5104C61.1097 26.4073 60.3818 27.1352 59.4848 27.1352Z" fill="#FBFBFB"/>
<path d="M44.4828 36.9999H2.11825C0.953228 36.9999 0 36.0467 0 34.8817V11.5811C0 10.4161 0.953228 9.46289 2.11825 9.46289H44.4829C45.6479 9.46289 46.6011 10.4161 46.6011 11.5811V34.8817C46.601 36.0467 45.6478 36.9999 44.4828 36.9999Z" fill="#0E9347"/>
<path d="M40.2463 34.8817H6.35458C6.35458 32.5517 4.44822 30.6453 2.11816 30.6453V15.8177C4.44822 15.8177 6.35458 13.9114 6.35458 11.5813H40.2463C40.2463 13.9114 42.1526 15.8177 44.4827 15.8177V30.6453C42.1526 30.6453 40.2463 32.5517 40.2463 34.8817Z" fill="#57AB00"/>
<path d="M23.3006 32.7635C27.98 32.7635 31.7735 28.4958 31.7735 23.2315C31.7735 17.9671 27.98 13.6995 23.3006 13.6995C18.6211 13.6995 14.8276 17.9671 14.8276 23.2315C14.8276 28.4958 18.6211 32.7635 23.3006 32.7635Z" fill="#0E9347"/>
<path d="M10.5912 25.3498C11.761 25.3498 12.7094 24.4014 12.7094 23.2315C12.7094 22.0617 11.761 21.1133 10.5912 21.1133C9.42127 21.1133 8.4729 22.0617 8.4729 23.2315C8.4729 24.4014 9.42127 25.3498 10.5912 25.3498Z" fill="#0E9347"/>
<path d="M36.0099 25.3498C37.1797 25.3498 38.1281 24.4014 38.1281 23.2315C38.1281 22.0617 37.1797 21.1133 36.0099 21.1133C34.84 21.1133 33.8916 22.0617 33.8916 23.2315C33.8916 24.4014 34.84 25.3498 36.0099 25.3498Z" fill="#0E9347"/>
<path d="M20.5489 28.2336V26.3296H19.3309V25.4196H20.5489V24.1736H19.3309V23.1096H20.5489V18.2376H23.1809C24.4036 18.2376 25.3089 18.485 25.8969 18.9796C26.4943 19.4743 26.7929 20.193 26.7929 21.1356C26.7929 22.0876 26.4709 22.8343 25.8269 23.3756C25.1829 23.9076 24.2356 24.1736 22.9849 24.1736H21.8089V25.4196H24.1189V26.3296H21.8089V28.2336H20.5489ZM21.8089 23.1096H22.8029C23.6523 23.1096 24.3103 22.9696 24.7769 22.6896C25.2529 22.4096 25.4909 21.9056 25.4909 21.1776C25.4909 20.543 25.2949 20.0716 24.9029 19.7636C24.5109 19.4556 23.8996 19.3016 23.0689 19.3016H21.8089V23.1096Z" fill="white"/>
<path d="M37.6085 40.8195C40.706 40.8195 43.217 38.3085 43.217 35.211C43.217 32.1135 40.706 29.6025 37.6085 29.6025C34.511 29.6025 32 32.1135 32 35.211C32 38.3085 34.511 40.8195 37.6085 40.8195Z" fill="#FFCA5D"/>
<path d="M44.8194 39.217C47.9169 39.217 50.4279 36.706 50.4279 33.6085C50.4279 30.511 47.9169 28 44.8194 28C41.7219 28 39.2109 30.511 39.2109 33.6085C39.2109 36.706 41.7219 39.217 44.8194 39.217Z" fill="#FFB000"/>
<path d="M44.8194 28C41.6947 28 39.2109 30.4838 39.2109 33.6085C39.2109 36.7332 41.6947 39.217 44.8194 39.217C47.9441 39.217 50.4279 36.7332 50.4279 33.6085C50.4279 30.4838 47.9441 28 44.8194 28ZM44.8194 37.6145C42.576 37.6145 40.8134 35.8519 40.8134 33.6085C40.8134 31.3651 42.576 29.6024 44.8194 29.6024C47.0628 29.6024 48.8255 31.3651 48.8255 33.6085C48.8255 35.8519 47.0628 37.6145 44.8194 37.6145Z" fill="#FFCB5B"/>
<path d="M41.3743 34.1694C41.3743 31.926 43.137 30.1634 45.3803 30.1634C46.3418 30.1634 47.2232 30.4839 47.9442 31.1248C47.143 30.1634 46.1015 29.6025 44.8195 29.6025C42.5761 29.6025 40.8135 31.3652 40.8135 33.6086C40.8135 34.8905 41.3743 35.9321 42.2556 36.6532C41.6948 36.0122 41.3743 35.1309 41.3743 34.1694Z" fill="#F19920"/>
<path d="M44.8195 36.0122C44.3388 36.0122 44.0183 35.6917 44.0183 35.2111V32.0063C44.0183 31.5255 44.3388 31.2051 44.8195 31.2051C45.3002 31.2051 45.6207 31.5256 45.6207 32.0063V35.2111C45.6207 35.6917 45.3002 36.0122 44.8195 36.0122Z" fill="#F19920"/>
<path d="M47.7839 38.3357C47.223 36.3327 45.7808 34.7302 43.938 34.0092C43.6175 32.1664 42.4157 30.564 40.8935 29.6025C39.932 30.6441 39.291 32.0062 39.291 33.5284C39.291 36.6532 41.7748 39.1369 44.8995 39.1369C45.9411 39.217 46.9025 38.8966 47.7839 38.3357Z" fill="#F19920"/>
<path d="M42.2554 36.6531C41.6946 35.9319 41.294 35.0506 41.294 34.0892C41.294 32.9675 41.7747 31.926 42.5759 31.2049C42.4157 30.9645 42.2554 30.8043 42.0952 30.644C41.294 31.3651 40.8132 32.4067 40.8132 33.6085C40.8133 34.8904 41.3741 35.9319 42.2554 36.6531Z" fill="#FFB000"/>
<path d="M44.0181 34.0891V35.2108C44.0181 35.6915 44.3386 36.012 44.8193 36.012C45.2999 36.012 45.6204 35.6915 45.6204 35.2108V35.0506C45.1398 34.6499 44.579 34.3295 44.0181 34.0891Z" fill="#FFB000"/>
<path d="M47.7839 38.3355C47.6236 37.7747 47.4633 37.294 47.1429 36.8132C46.5019 37.294 45.7008 37.6144 44.8194 37.6144C42.576 37.6144 40.8134 35.8517 40.8134 33.6084C40.8134 32.4065 41.2941 31.365 42.0953 30.6438C41.6947 30.2433 41.2941 29.9227 40.8134 29.6824C39.8519 30.7239 39.2109 32.086 39.2109 33.6083C39.2109 36.733 41.6947 39.2168 44.8194 39.2168C45.9411 39.2168 46.9025 38.8964 47.7839 38.3355Z" fill="#FFB000"/>
<path d="M37.6085 40.8195C40.706 40.8195 43.217 38.3085 43.217 35.211C43.217 32.1135 40.706 29.6025 37.6085 29.6025C34.511 29.6025 32 32.1135 32 35.211C32 38.3085 34.511 40.8195 37.6085 40.8195Z" fill="#FFB000"/>
<path d="M36.8074 39.2169C36.8074 39.7777 36.8875 40.2584 37.0477 40.8193C37.208 40.8193 37.4483 40.8193 37.6086 40.8193C40.7333 40.8193 43.217 38.3356 43.217 35.2108C43.217 34.65 43.1369 34.1693 42.9767 33.6084C42.8165 33.6084 42.5761 33.6084 42.4159 33.6084C39.2911 33.6085 36.8074 36.0922 36.8074 39.2169Z" fill="#F19920"/>
<path d="M37.6085 29.6025C34.4838 29.6025 32 32.0863 32 35.211C32 38.3357 34.4838 40.8195 37.6085 40.8195C40.7332 40.8195 43.217 38.3357 43.217 35.211C43.217 32.0864 40.7332 29.6025 37.6085 29.6025ZM37.6085 39.217C35.3651 39.217 33.6024 37.4544 33.6024 35.211C33.6024 32.9676 35.3651 31.2049 37.6085 31.2049C39.8519 31.2049 41.6145 32.9676 41.6145 35.211C41.6145 37.4544 39.8519 39.217 37.6085 39.217Z" fill="#FFCB5B"/>
<path d="M37.6084 40.7392C40.7331 40.8194 43.2169 38.2555 43.2169 35.2109H43.1367C42.7362 35.2109 42.4156 35.5315 42.3356 35.932C42.1753 37.0537 41.6145 38.0953 40.8133 38.8164C40.1723 39.4574 39.291 39.858 38.3295 40.0182C37.9289 40.0182 37.6084 40.3386 37.6084 40.7392Z" fill="#FFB000"/>
<path d="M34.1634 35.7717C34.1634 33.5283 35.9261 31.7656 38.1695 31.7656C39.131 31.7656 40.0123 32.0862 40.7333 32.7271C39.9321 31.7656 38.8905 31.2048 37.6086 31.2048C35.3652 31.2048 33.6025 32.9675 33.6025 35.2109C33.6025 36.4928 34.1634 37.5344 35.0447 38.2555C34.4839 37.6145 34.1634 36.7332 34.1634 35.7717Z" fill="#F19920"/>
<path d="M40.0121 37.6947C39.932 37.6947 39.8519 37.6947 39.7718 37.6145C39.6116 37.4543 39.6116 37.2139 39.7718 37.0537C40.2525 36.573 40.4929 35.8519 40.4929 35.2109C40.4929 34.9705 40.6531 34.8103 40.8935 34.8103C41.1338 34.8103 41.2941 34.9705 41.2941 35.2109C41.2941 36.0922 40.9736 36.9736 40.4127 37.6145C40.2524 37.6947 40.0922 37.6947 40.0121 37.6947Z" fill="#FFCB5B"/>
<path d="M37.6086 37.6145C37.1278 37.6145 36.8074 37.294 36.8074 36.8134V33.6086C36.8074 33.1278 37.1279 32.8074 37.6086 32.8074C38.0893 32.8074 38.4097 33.1279 38.4097 33.6086V36.8134C38.4098 37.294 38.0893 37.6145 37.6086 37.6145Z" fill="#F19920"/>
<path d="M41.2941 33.6885C41.4543 34.1693 41.6146 34.65 41.6146 35.2108C41.6146 37.4542 39.852 39.2169 37.6086 39.2169C37.3682 39.2169 37.0477 39.2169 36.8074 39.1367V39.2169C36.8074 39.7777 36.8875 40.2584 37.0477 40.8193C37.208 40.8193 37.4483 40.8193 37.6086 40.8193C40.7333 40.8193 43.217 38.3356 43.217 35.2108C43.217 34.65 43.1369 34.1693 42.9767 33.6084C42.8165 33.6084 42.5761 33.6084 42.4159 33.6084C42.0151 33.6085 41.6947 33.6085 41.2941 33.6885Z" fill="#FFB000"/>
<path d="M41.6146 45.6266C44.7121 45.6266 47.2231 43.1156 47.2231 40.0182C47.2231 36.9207 44.7121 34.4097 41.6146 34.4097C38.5171 34.4097 36.0061 36.9207 36.0061 40.0182C36.0061 43.1156 38.5171 45.6266 41.6146 45.6266Z" fill="#FFB000"/>
<path d="M41.6146 34.4097C38.4899 34.4097 36.0061 36.8934 36.0061 40.0182C36.0061 43.1429 38.4899 45.6266 41.6146 45.6266C44.7393 45.6266 47.2231 43.1429 47.2231 40.0182C47.2231 36.8934 44.7393 34.4097 41.6146 34.4097ZM41.6146 44.0242C39.3712 44.0242 37.6085 42.2616 37.6085 40.0182C37.6085 37.7748 39.3712 36.0121 41.6146 36.0121C43.858 36.0121 45.6206 37.7748 45.6206 40.0182C45.6206 42.2616 43.858 44.0242 41.6146 44.0242Z" fill="#FFCB5B"/>
<path d="M38.1693 40.5791C38.1693 38.3357 39.9319 36.573 42.1753 36.573C43.1368 36.573 44.0181 36.8935 44.7392 37.5345C43.938 36.573 42.8964 36.0122 41.6145 36.0122C39.3711 36.0122 37.6084 37.7749 37.6084 40.0183C37.6084 41.3002 38.1692 42.3417 39.0505 43.0628C38.4897 42.4219 38.1693 41.5406 38.1693 40.5791Z" fill="#F19920"/>
<path d="M41.6147 42.4217C41.1339 42.4217 40.8135 42.1012 40.8135 41.6206V38.4157C40.8135 37.9349 41.134 37.6145 41.6147 37.6145C42.0954 37.6145 42.4159 37.935 42.4159 38.4157V41.6205C42.4159 42.1012 42.0954 42.4217 41.6147 42.4217Z" fill="#F19920"/>
</svg>
