<svg width="19" height="18" viewBox="0 0 19 18" fill="none" xmlns="http://www.w3.org/2000/svg">
<path d="M8.90288 0C4.53216 0 0.976074 3.55609 0.976074 7.92682C0.976074 12.2978 4.53216 15.8536 8.90288 15.8536C13.2739 15.8536 16.8297 12.2978 16.8297 7.92682C16.8297 3.55609 13.2739 0 8.90288 0ZM8.90288 14.3903C5.33899 14.3903 2.43949 11.4908 2.43949 7.92686C2.43949 4.36296 5.33899 1.46341 8.90288 1.46341C12.4668 1.46341 15.3663 4.36293 15.3663 7.92682C15.3663 11.4907 12.4668 14.3903 8.90288 14.3903Z" fill="#E0E0E0"/>
<path d="M18.7617 16.751L14.5666 12.5558C14.2807 12.27 13.8178 12.27 13.5319 12.5558C13.246 12.8415 13.246 13.3049 13.5319 13.5905L17.727 17.7856C17.8699 17.9285 18.057 18 18.2444 18C18.4314 18 18.6187 17.9285 18.7617 17.7856C19.0475 17.5 19.0475 17.0366 18.7617 16.751Z" fill="#E0E0E0"/>
</svg>
