<svg width="50" height="50" viewBox="0 0 50 50" fill="none" xmlns="http://www.w3.org/2000/svg">
<g clip-path="url(#clip0)">
<path d="M40.1173 49.9023H2.05078L5.91507 12.7041H36.2518L36.8969 18.9121L40.1173 49.9023Z" fill="#7147D7"/>
<path d="M21.6008 24.7319H42.688L45.3747 49.9025H18.9141L21.6008 24.7319Z" fill="#D3356C"/>
<path d="M23.711 24.7319H44.7982L47.4849 49.9025H21.0247L23.711 24.7319Z" fill="#FFB000"/>
<path d="M48.0223 11.8939C48.0223 15.9634 44.7234 19.2627 40.6539 19.2627C36.5844 19.2627 33.2854 15.9634 33.2854 11.8939C33.2854 7.82434 36.5844 4.52539 40.6539 4.52539C44.7234 4.52539 48.0223 7.82434 48.0223 11.8939Z" fill="#57AB00"/>
<path d="M40.0678 16.4234C39.7946 16.4234 39.5421 16.2753 39.409 16.0358L37.399 12.4175C37.1968 12.0536 37.3277 11.5947 37.6916 11.3925C38.0559 11.1904 38.5148 11.3216 38.717 11.6855L40.0235 14.0373L42.9074 8.10389C43.0894 7.72966 43.5403 7.57326 43.9149 7.7556C44.2895 7.93756 44.4455 8.38846 44.2632 8.76306L40.7456 15.9992C40.6228 16.2521 40.3695 16.4153 40.0884 16.423C40.0815 16.4234 40.0746 16.4234 40.0678 16.4234Z" fill="white"/>
<path d="M29.2677 17.0963C28.8511 17.0963 28.5139 16.7587 28.5139 16.3426V8.84056C28.5139 4.7432 25.1806 1.40991 21.0832 1.40991C16.9859 1.40991 13.6526 4.7432 13.6526 8.84056V16.3426C13.6526 16.7587 13.315 17.0963 12.8988 17.0963C12.4826 17.0963 12.145 16.7587 12.145 16.3426V8.84056C12.145 3.91197 16.1546 -0.0976562 21.0832 -0.0976562C26.0118 -0.0976562 30.0214 3.91197 30.0214 8.84056V16.3426C30.0214 16.7587 29.6838 17.0963 29.2677 17.0963Z" fill="#4F4F4F"/>
<path d="M34.2546 39.8516C31.1437 39.8516 28.613 37.3209 28.613 34.2101V29.3219C28.613 28.9057 28.9503 28.5681 29.3664 28.5681C29.783 28.5681 30.1202 28.9057 30.1202 29.3219V34.2101C30.1202 36.4893 31.9749 38.344 34.2546 38.344C36.5342 38.344 38.3886 36.4893 38.3886 34.2101V29.3219C38.3886 28.9057 38.7262 28.5681 39.1424 28.5681C39.5589 28.5681 39.8961 28.9057 39.8961 29.3219V34.2101C39.8961 37.3209 37.3655 39.8516 34.2546 39.8516Z" fill="#4F4F4F"/>
</g>
<defs>
<clipPath id="clip0">
<rect width="50" height="50" fill="white"/>
</clipPath>
</defs>
</svg>
